<?xml version="1.0" standalone="no"?>
<!DOCTYPE svg PUBLIC "-//W3C//DTD SVG 20010904//EN"
 "http://www.w3.org/TR/2001/REC-SVG-20010904/DTD/svg10.dtd">
<svg version="1.0" xmlns="http://www.w3.org/2000/svg"
 width="3630.000000pt" height="2476.000000pt" viewBox="0 0 3630.000000 2476.000000"
 preserveAspectRatio="xMidYMid meet">

<g transform="translate(0.000000,2476.000000) scale(0.100000,-0.100000)"
fill="#000000" stroke="none">
<path d="M16707 24754 c-4 -4 -7 -22 -7 -41 l0 -33 -3454 0 c-3355 0 -3456 -1
-3515 -19 -33 -10 -80 -30 -103 -44 -65 -38 -145 -128 -181 -204 l-32 -68 0
-4990 0 -4990 33 -69 c58 -124 141 -200 270 -249 l57 -22 3685 -3 c2504 -2
3711 1 3765 8 194 25 345 161 390 352 13 55 15 608 15 4390 l0 4327 28 3 27 3
0 205 0 205 -30 5 c-27 4 -31 9 -30 40 0 28 4 35 25 40 l25 6 0 199 0 199 -25
6 -25 6 -6 164 c-6 189 -20 238 -93 331 -79 101 -194 161 -333 174 -72 7 -72
8 -75 39 l-3 31 -201 3 c-110 1 -203 -1 -207 -4z m608 -5359 l0 -4990 -3767
-3 -3768 -2 0 4995 0 4995 3768 -2 3767 -3 0 -4990z"/>
<path d="M11675 20060 c-182 -18 -350 -101 -472 -234 -75 -82 -118 -155 -156
-263 -27 -76 -32 -105 -35 -213 -4 -149 10 -224 67 -344 91 -194 272 -347 476
-401 284 -76 602 32 782 267 51 66 104 172 129 258 29 100 27 300 -4 400 -108
348 -429 564 -787 530z"/>
<path d="M13615 19915 c-212 -44 -394 -210 -461 -422 -24 -78 -29 -217 -10
-298 44 -183 164 -335 326 -413 101 -48 163 -62 272 -62 162 0 299 58 419 179
370 371 129 996 -396 1026 -49 3 -107 -1 -150 -10z"/>
<path d="M15637 19680 c-101 -26 -206 -113 -250 -208 -18 -39 -22 -65 -22
-152 0 -100 1 -108 34 -168 144 -266 525 -257 657 16 25 50 28 69 29 152 0 88
-3 101 -32 161 -61 123 -171 197 -306 204 -39 3 -89 0 -110 -5z"/>
<path d="M23494 23440 c-168 -25 -346 -129 -457 -265 -57 -71 -120 -195 -144
-285 -17 -61 -18 -264 -18 -3675 0 -3433 1 -3613 18 -3675 59 -217 197 -386
392 -480 174 -85 68 -80 1675 -80 1607 0 1501 -5 1675 80 190 92 321 248 387
462 l23 73 3 2468 c2 2453 2 2467 22 2467 20 0 20 8 20 455 0 444 0 455 -19
455 -20 0 -20 14 -23 698 -4 692 -4 698 -27 772 -75 248 -251 426 -506 512
l-70 23 -1450 1 c-797 1 -1473 -2 -1501 -6z m451 -307 c0 -65 5 -97 18 -124
24 -47 71 -95 121 -122 41 -22 41 -22 864 -25 545 -2 836 1 862 8 137 37 225
188 187 323 l-8 29 238 -4 c222 -4 242 -5 298 -27 169 -67 289 -191 340 -354
l25 -78 0 -3577 c0 -3949 5 -3628 -63 -3755 -66 -124 -173 -215 -313 -264
l-79 -28 -1450 0 c-1396 0 -1452 1 -1505 19 -203 70 -352 225 -389 408 -8 38
-10 1090 -9 3643 l3 3590 22 60 c64 168 219 308 389 349 40 10 123 15 254 15
l195 1 0 -87z"/>
<path d="M23975 19608 c-122 -16 -234 -98 -291 -213 -26 -55 -29 -69 -29 -165
0 -92 3 -112 26 -160 57 -119 163 -199 296 -222 164 -28 327 60 405 220 30 61
33 75 33 157 -1 113 -26 183 -95 258 -90 98 -211 142 -345 125z"/>
<path d="M25007 19529 c-84 -20 -163 -83 -205 -163 -23 -43 -27 -64 -27 -136
0 -100 21 -154 86 -218 63 -63 120 -86 214 -87 68 0 89 4 137 28 31 15 71 44
89 64 156 178 80 441 -145 508 -55 17 -92 17 -149 4z"/>
<path d="M26055 19416 c-74 -28 -135 -115 -135 -197 0 -14 12 -49 26 -78 94
-187 374 -120 373 89 0 131 -141 231 -264 186z"/>
<path d="M8176 15771 l-39 -6 78 -70 78 -69 -87 -18 c-474 -95 -891 -400
-1128 -823 -274 -490 -286 -1069 -31 -1567 255 -501 745 -835 1315 -897 54 -6
113 -11 133 -11 l35 0 0 59 0 59 -82 7 c-409 33 -732 178 -1003 450 -220 220
-359 473 -427 776 -20 91 -23 131 -23 314 0 229 9 292 67 475 146 459 517 836
975 989 90 31 233 65 240 58 2 -3 -24 -35 -57 -72 -34 -37 -60 -68 -58 -70 2
-2 40 -1 86 2 l83 6 101 109 c55 60 98 111 96 112 -1 2 -51 46 -110 99 -105
96 -107 97 -155 96 -26 -1 -66 -5 -87 -8z"/>
<path d="M27770 15680 l-109 -99 99 -109 99 -109 83 -6 c45 -3 85 -4 87 -2 2
2 -24 35 -58 72 -35 37 -58 69 -53 71 19 6 215 -48 316 -88 508 -199 878 -674
957 -1228 19 -135 7 -413 -24 -542 -70 -293 -203 -535 -407 -741 -281 -285
-602 -431 -1017 -464 l-83 -7 0 -59 0 -59 35 0 c133 0 337 37 496 90 593 197
1021 706 1120 1335 17 104 17 379 0 475 -96 562 -421 1009 -906 1250 -158 78
-253 113 -404 144 l-104 22 78 69 78 70 -49 7 c-118 16 -113 17 -234 -92z"/>
<path d="M16770 12930 l0 -70 -3333 -2 -3333 -3 -76 -38 c-124 -61 -213 -176
-238 -306 -7 -36 -10 -1486 -10 -4342 l0 -4289 -1572 0 c-864 0 -1569 2 -1567
4 3 3 40 18 84 35 186 69 424 188 565 284 691 469 1065 1164 1166 2170 23 228
24 695 1 877 -111 882 -585 1874 -1440 3015 -473 631 -1113 1353 -1680 1897
l-199 191 -40 -39 c-98 -95 -429 -465 -664 -744 -223 -263 -615 -769 -787
-1015 -692 -987 -1105 -1763 -1343 -2520 -192 -610 -234 -1083 -153 -1735 139
-1116 644 -1901 1484 -2304 61 -29 144 -66 185 -82 l75 -29 -1948 -3 -1947 -2
0 -30 0 -30 2048 0 c1746 0 2056 -2 2098 -14 149 -44 380 -85 609 -110 473
-52 1084 -14 1544 95 l123 29 1679 0 1679 0 0 -179 c0 -98 3 -199 6 -225 l7
-46 -115 0 c-70 0 -136 -6 -173 -15 -178 -47 -315 -182 -371 -370 -27 -87 -26
-422 0 -510 29 -97 74 -170 146 -239 74 -69 142 -107 235 -131 54 -13 996 -15
8900 -13 l8840 3 60 24 c169 68 286 196 330 362 21 78 21 414 0 494 -45 172
-182 316 -360 378 -17 6 -159 13 -320 16 -251 5 -289 8 -285 21 2 8 6 108 8
223 l4 207 4804 0 4804 0 0 30 0 30 -4805 0 -4805 0 0 4290 c0 3103 -3 4304
-11 4342 -28 133 -123 252 -249 312 l-65 31 -3320 5 -3320 5 3 68 3 67 -1481
0 -1480 0 0 -70z m1531 -303 c104 -70 106 -197 6 -271 -40 -29 -134 -29 -173
0 -53 39 -69 71 -69 134 0 66 18 99 75 138 45 30 115 30 161 -1z m7799 -4897
l0 -4360 -252 2 -253 3 -3 63 -3 62 -279 0 -279 0 -3 -63 -3 -62 -162 -3 -162
-2 -3 62 -3 63 -282 3 -283 2 0 -65 0 -65 -165 0 -165 0 0 65 0 65 -285 0
-285 0 0 -65 0 -65 -165 0 -165 0 0 65 0 65 -279 0 c-314 0 -291 6 -291 -81
l0 -49 -165 0 -165 0 0 65 0 65 -282 -2 -283 -3 -3 -63 -3 -62 -162 2 -162 3
-3 63 -3 62 -279 0 -279 0 -3 -62 -3 -63 -162 -3 -162 -2 -3 62 -3 63 -2082 3
-2082 2 -3 -62 -3 -63 -162 -3 -162 -2 -3 62 -3 63 -282 3 -282 2 -3 -62 -3
-63 -162 -3 -162 -2 -3 62 -3 63 -282 3 -283 2 0 -65 0 -65 -165 0 -164 0 -3
63 -3 62 -282 3 -283 2 0 -65 0 -65 -165 0 -165 0 0 65 0 65 -282 -2 -283 -3
-3 -63 -3 -62 -162 2 -162 3 -3 63 -3 62 -279 0 -279 0 -3 -62 -3 -63 -162 -3
-162 -2 -3 62 -3 63 -282 3 -283 2 0 -65 0 -65 -140 0 -140 0 0 4360 0 4360
7865 0 7865 0 0 -4360z"/>
<path d="M17965 9674 c-566 -88 -1045 -434 -1300 -937 -286 -566 -246 -1232
104 -1758 270 -405 687 -673 1176 -756 137 -23 424 -23 555 0 486 88 889 344
1160 739 222 322 333 732 300 1113 -21 253 -70 426 -181 650 -90 181 -176 302
-319 446 -344 347 -764 521 -1252 518 -84 -1 -193 -7 -243 -15z m581 -1449
c178 -360 324 -657 324 -660 0 -3 -81 -5 -180 -5 l-180 0 0 -275 0 -275 -290
0 -290 0 0 275 0 275 -180 0 c-99 0 -180 2 -180 4 0 2 97 201 216 442 118 242
263 537 321 657 59 119 108 217 110 217 3 0 150 -295 329 -655z"/>
</g>
</svg>
